<?xml version="1.0" encoding="UTF-8" standalone="no"?>
<!DOCTYPE svg PUBLIC "-//W3C//DTD SVG 1.1//EN" "http://www.w3.org/Graphics/SVG/1.1/DTD/svg11.dtd">
<!-- Created with Vectornator (http://vectornator.io/) -->
<svg height="100%" stroke-miterlimit="10" style="fill-rule:nonzero;clip-rule:evenodd;stroke-linecap:round;stroke-linejoin:round;" version="1.1" viewBox="0 0 1024 1024" width="100%" xml:space="preserve" xmlns="http://www.w3.org/2000/svg" xmlns:vectornator="http://vectornator.io" xmlns:xlink="http://www.w3.org/1999/xlink">
<defs/>
<clipPath id="ArtboardFrame">
<rect height="1024" width="1024" x="0" y="0"/>
</clipPath>
<g clip-path="url(#ArtboardFrame)" id="Layer-4" vectornator:layerName="Layer 4">
<path d="M2.59348e-13 1024L2.59348e-13 0L1024 0L1024 1024L2.59348e-13 1024Z" fill="#bac99c" fill-rule="nonzero" opacity="1" stroke="none"/>
<path d="M-2.13163e-14 1024L-2.13163e-14 706L1024 706L1024 1024L-2.13163e-14 1024Z" fill="#779966" fill-rule="nonzero" opacity="0.970482" stroke="none" vectornator:layerName="Rectangle"/>
<path d="M-1.82077e-14 1024L-1.82077e-14 706L1024 706L1024 1024L-1.82077e-14 1024Z" fill="#00524b" fill-rule="nonzero" opacity="0" stroke="none" vectornator:layerName="Rectangle"/>
<path d="M-1.82077e-14 1024L-1.82077e-14 706L1024 706L1024 1024L-1.82077e-14 1024Z" fill="#bac99c" fill-rule="nonzero" opacity="0" stroke="none" vectornator:layerName="Rectangle"/>
<path d="M-1.82077e-14 1024L-1.82077e-14 706L1024 706L1024 1024L-1.82077e-14 1024Z" fill="#f6ffe5" fill-rule="nonzero" opacity="0" stroke="none" vectornator:layerName="Rectangle"/>
<path d="M-1.80966e-14 1024L-1.80966e-14 904L1024 904L1024 1024L-1.80966e-14 1024Z" fill="#003d38" fill-rule="nonzero" opacity="1" stroke="none"/>
<path d="M-1.80966e-14 1024L-1.80966e-14 904L1024 904L1024 1024L-1.80966e-14 1024Z" fill="#00524b" fill-rule="nonzero" opacity="0" stroke="none"/>
<path d="M-1.80966e-14 1024L-1.80966e-14 904L1024 904L1024 1024L-1.80966e-14 1024Z" fill="#415841" fill-rule="nonzero" opacity="1" stroke="none"/>
<path d="M-1.80966e-14 1024L-1.80966e-14 904L1024 904L1024 1024L-1.80966e-14 1024Z" fill="#f6ffe5" fill-rule="nonzero" opacity="0" stroke="none"/>
<g fill="#fbffe5" opacity="0" stroke="none">
<path d="M522.939 16.8024L522.218 34.1937C525.553 30.2033 529.458 28.3008 533.933 28.4861C537.763 28.6447 540.984 30.1699 543.596 33.0617C546.208 35.9535 547.43 39.4185 547.263 43.4568C547.094 47.5366 545.572 50.9348 542.696 53.6515C539.821 56.3682 536.5 57.6485 532.732 57.4925C528.153 57.3028 524.418 55.0839 521.529 50.8357L521.316 55.9875L515.165 55.7328C514.54 55.7069 514.098 55.5635 513.838 55.3025C513.578 55.0415 513.455 54.7237 513.471 54.349C513.487 53.9535 513.636 53.6417 513.916 53.4135C514.197 53.1853 514.649 53.0842 515.274 53.11L518.802 53.2562L520.206 19.3477L516.678 19.2016C516.053 19.1757 515.611 19.0323 515.351 18.7713C515.091 18.5103 514.969 18.1821 514.985 17.7866C515 17.4119 515.149 17.1053 515.43 16.8667C515.711 16.6281 516.163 16.5218 516.788 16.5476L522.939 16.8024ZM544.635 43.473C544.772 40.1634 543.754 37.3115 541.58 34.9174C539.406 32.5233 536.8 31.2634 533.761 31.1375C530.722 31.0116 528.02 32.0518 525.656 34.2579C523.292 36.4641 522.042 39.222 521.904 42.5316C521.767 45.8413 522.786 48.6931 524.959 51.0872C527.133 53.4813 529.739 54.7413 532.778 54.8671C535.817 54.993 538.519 53.9529 540.883 51.7467C543.247 49.5406 544.498 46.7827 544.635 43.473Z"/>
<path d="M575.223 20.7816L570.691 57.0937L580.924 58.3708C581.565 58.4508 582.005 58.6264 582.244 58.8977C582.483 59.169 582.579 59.501 582.529 59.8938C582.483 60.2659 582.31 60.5593 582.01 60.7738C581.711 60.9883 581.24 61.0556 580.599 60.9756L557.528 58.0962C556.908 58.0188 556.479 57.8393 556.241 57.5577C556.004 57.2761 555.908 56.9492 555.954 56.5771C556.003 56.1843 556.177 55.8858 556.476 55.6816C556.774 55.4774 557.233 55.414 557.853 55.4914L568.087 56.7686L572.29 23.0923L564.785 22.1558C564.165 22.0784 563.731 21.8982 563.483 21.6153C563.235 21.3324 563.135 20.9945 563.184 20.6018C563.231 20.2296 563.404 19.9363 563.703 19.7218C564.003 19.5073 564.473 19.44 565.114 19.52L575.223 20.7816Z"/>
<path d="M613.886 67.3609L614.666 63.6609C610.274 66.0141 605.958 66.7439 601.717 65.8503C598.639 65.2016 596.398 63.9149 594.994 61.9902C593.59 60.0656 593.126 57.9718 593.603 55.709C594.127 53.222 595.726 51.2915 598.4 49.9176C601.074 48.5437 604.603 48.3185 608.986 49.2422C610.168 49.4914 611.436 49.8385 612.79 50.2835C614.144 50.7285 615.592 51.2838 617.134 51.9494L618.01 47.7907C618.307 46.3841 617.912 45.0235 616.827 43.7089C615.741 42.3943 613.894 41.462 611.284 40.9121C609.287 40.4911 606.361 40.4814 602.508 40.8829C601.813 40.9493 601.373 40.9632 601.19 40.9245C600.864 40.8558 600.609 40.6744 600.426 40.3804C600.243 40.0863 600.191 39.7559 600.268 39.3889C600.341 39.0424 600.501 38.7886 600.748 38.6277C601.097 38.3821 602.337 38.2069 604.467 38.1022C607.828 37.9162 610.324 37.9951 611.954 38.3387C615.196 39.0218 617.555 40.3547 619.032 42.3373C620.509 44.3199 621.035 46.3203 620.61 48.3385L617.027 65.34L620.451 66.0618C621.083 66.195 621.507 66.4067 621.723 66.697C621.938 66.9873 622.005 67.3261 621.924 67.7134C621.846 68.0803 621.649 68.3582 621.333 68.547C621.016 68.7357 620.542 68.7635 619.91 68.6304L613.886 67.3609ZM616.58 54.5791C615.45 53.9791 614.23 53.4558 612.919 53.0091C611.608 52.5625 610.208 52.1824 608.72 51.8688C604.989 51.0826 601.904 51.2735 599.465 52.4414C597.622 53.3091 596.524 54.5787 596.172 56.2503C595.845 57.7996 596.177 59.2321 597.166 60.5478C598.156 61.8635 599.812 62.7662 602.136 63.2559C604.358 63.7242 606.516 63.7158 608.609 63.2307C610.702 62.7456 612.961 61.7474 615.388 60.2361L616.58 54.5791Z"/>
<path d="M639.627 45.8291L638.864 48.3732C641.688 46.7194 644.177 46.2159 646.332 46.8627C647.629 47.252 648.663 47.9376 649.434 48.9195C650.205 49.9013 650.711 51.1895 650.95 52.7839C652.486 51.7225 653.932 51.0198 655.286 50.6758C656.64 50.3318 657.895 50.3335 659.053 50.6808C660.869 51.2258 662.138 52.2487 662.863 53.7494C663.824 55.6911 664.035 57.5599 663.496 59.3558L658.223 76.9251L660.348 77.563C660.947 77.7427 661.341 77.9862 661.532 78.2935C661.722 78.6008 661.761 78.9441 661.647 79.3232C661.539 79.6824 661.319 79.9427 660.988 80.1043C660.657 80.2659 660.192 80.2569 659.593 80.0772L654.954 78.6847L660.91 58.8406C661.294 57.5635 661.222 56.3892 660.695 55.3175C660.169 54.2459 659.397 53.5573 658.379 53.2519C657.461 52.9764 656.39 53.0301 655.166 53.4131C653.941 53.796 652.378 54.8005 650.476 56.4266L645.472 73.098L647.568 73.7269C648.166 73.9066 648.561 74.1501 648.751 74.4574C648.942 74.7647 648.98 75.108 648.866 75.4871C648.759 75.8463 648.539 76.1066 648.208 76.2682C647.876 76.4298 647.412 76.4208 646.813 76.2411L642.174 74.8486L648.076 55.1841C648.477 53.8471 648.414 52.6264 647.886 51.5218C647.359 50.4173 646.606 49.7183 645.628 49.4248C644.73 49.1553 643.756 49.1781 642.704 49.4932C641.241 49.946 639.542 50.9694 637.606 52.5635L632.602 69.235L634.727 69.8728C635.326 70.0525 635.72 70.296 635.911 70.6033C636.101 70.9107 636.14 71.2539 636.026 71.633C635.918 71.9922 635.699 72.2526 635.367 72.4142C635.036 72.5757 634.571 72.5667 633.973 72.387L627.208 70.3567C626.61 70.177 626.217 69.9285 626.029 69.6112C625.841 69.2939 625.802 68.9557 625.909 68.5965C626.023 68.2174 626.244 67.952 626.573 67.8004C626.901 67.6488 627.364 67.6628 627.963 67.8425L630.088 68.4803L636.35 47.6186L634.225 46.9807C633.626 46.801 633.233 46.5525 633.045 46.2352C632.858 45.9179 632.821 45.5697 632.935 45.1906C633.043 44.8314 633.262 44.571 633.593 44.4095C633.925 44.2479 634.39 44.2569 634.988 44.4366L639.627 45.8291Z"/>
<path d="M697.121 80.8202L672.235 71.0092C671.416 74.3365 671.735 77.4018 673.194 80.2051C674.653 83.0085 677.02 85.0558 680.296 86.3472C682.118 87.0654 684.145 87.5176 686.379 87.7038C688.612 87.89 690.553 87.7372 692.202 87.2454C692.685 87.0999 693.062 87.0806 693.334 87.1876C693.644 87.3098 693.867 87.5379 694.005 87.8719C694.142 88.2058 694.145 88.5376 694.015 88.8671C693.885 89.1965 693.604 89.4552 693.172 89.6431C691.86 90.2454 689.85 90.5001 687.143 90.4071C684.437 90.3142 681.833 89.7749 679.333 88.7892C675.147 87.1388 672.194 84.3902 670.474 80.5436C668.755 76.697 668.663 72.8259 670.199 68.9302C671.597 65.3834 674.11 62.8582 677.737 61.3545C681.364 59.8509 685.116 59.8632 688.992 61.3914C692.985 62.9654 695.756 65.564 697.306 69.187C698.856 72.8101 698.794 76.6878 697.121 80.8202ZM695.624 77.3748C696.201 74.4898 695.79 71.7973 694.391 69.2973C692.992 66.7973 690.867 64.9858 688.018 63.8625C685.169 62.7393 682.389 62.6061 679.677 63.463C676.966 64.3199 674.819 66.0154 673.238 68.5495L695.624 77.3748Z"/>
<path d="M769.628 87.4543L766.12 93.2578L762.804 91.2532L766.311 85.4498L769.628 87.4543ZM762.741 99.0295L750.099 119.943L758.925 125.278C759.477 125.612 759.808 125.952 759.916 126.297C760.023 126.642 759.975 126.984 759.77 127.323C759.576 127.643 759.299 127.841 758.938 127.915C758.576 127.989 758.119 127.858 757.567 127.524L737.669 115.497C737.134 115.174 736.816 114.835 736.713 114.481C736.611 114.127 736.657 113.79 736.851 113.469C737.055 113.13 737.336 112.928 737.691 112.863C738.047 112.798 738.492 112.927 739.027 113.251L747.853 118.585L759.12 99.9448L752.568 95.9842C752.033 95.6609 751.71 95.3196 751.598 94.9601C751.487 94.6007 751.528 94.2605 751.722 93.9396C751.927 93.6008 752.21 93.3945 752.571 93.3207C752.932 93.2468 753.389 93.3769 753.942 93.711L762.741 99.0295Z"/>
<path d="M790.714 117.37L802.254 125.729C802.761 126.095 803.05 126.459 803.123 126.821C803.195 127.182 803.116 127.523 802.883 127.844C802.663 128.147 802.37 128.321 802.004 128.364C801.638 128.408 801.202 128.247 800.696 127.88L789.155 119.521L778.908 133.668C778.016 134.9 777.764 136.287 778.152 137.828C778.541 139.37 779.688 140.831 781.595 142.212C783.029 143.251 784.737 144.16 786.719 144.94C788.701 145.72 790.351 146.175 791.67 146.308C792.167 146.333 792.525 146.425 792.744 146.584C793.014 146.779 793.174 147.056 793.223 147.413C793.273 147.771 793.194 148.093 792.986 148.38C792.803 148.633 792.522 148.79 792.144 148.85C791.201 149.016 789.452 148.669 786.898 147.809C784.344 146.95 782.113 145.829 780.207 144.448C777.726 142.652 776.174 140.64 775.549 138.412C774.925 136.185 775.327 134.084 776.757 132.11L787.004 117.963L783.081 115.121C782.575 114.755 782.286 114.391 782.213 114.029C782.14 113.668 782.22 113.327 782.452 113.007C782.672 112.703 782.965 112.529 783.331 112.486C783.697 112.442 784.133 112.603 784.64 112.97L788.562 115.811L793.109 109.535C793.475 109.029 793.839 108.739 794.201 108.667C794.562 108.594 794.894 108.668 795.198 108.888C795.519 109.12 795.701 109.419 795.744 109.785C795.788 110.151 795.626 110.587 795.26 111.093L790.714 117.37Z"/>
<path d="M856.951 193.212C854.099 196.017 850.659 197.392 846.631 197.338C842.602 197.283 839.17 195.815 836.336 192.934C833.472 190.023 832.053 186.554 832.078 182.525C832.103 178.496 833.534 175.086 836.37 172.295C839.222 169.49 842.662 168.107 846.691 168.147C850.719 168.187 854.166 169.662 857.03 172.573C859.864 175.454 861.276 178.909 861.266 182.938C861.255 186.967 859.817 190.392 856.951 193.212ZM855.088 191.318C857.434 189.01 858.61 186.209 858.614 182.917C858.619 179.624 857.452 176.79 855.114 174.414C852.776 172.038 849.958 170.829 846.658 170.787C843.358 170.746 840.543 171.872 838.211 174.166C835.895 176.446 834.727 179.239 834.707 182.546C834.688 185.853 835.847 188.695 838.185 191.071C840.523 193.447 843.341 194.656 846.641 194.697C849.941 194.739 852.756 193.612 855.088 191.318Z"/>
<path d="M877.916 196.511L874.867 199.051C877.465 199.273 879.509 199.725 881 200.409C882.491 201.092 883.83 202.146 885.017 203.571C886.297 205.107 887.135 206.781 887.532 208.593C887.798 209.889 887.679 211.365 887.173 213.02C886.667 214.675 885.83 215.989 884.661 216.962L871.959 227.542L873.379 229.247C873.779 229.727 873.973 230.148 873.962 230.509C873.952 230.871 873.794 231.178 873.49 231.432C873.202 231.672 872.875 231.768 872.51 231.719C872.144 231.671 871.762 231.407 871.362 230.927L866.862 225.524C866.448 225.028 866.251 224.596 866.27 224.228C866.289 223.86 866.442 223.555 866.73 223.315C867.034 223.062 867.365 222.963 867.723 223.018C868.08 223.072 868.465 223.348 868.879 223.844L870.279 225.525L882.645 215.225C884.07 214.039 884.841 212.515 884.959 210.655C885.077 208.794 884.409 206.991 882.956 205.247C881.849 203.918 880.621 202.989 879.271 202.459C877.922 201.929 875.429 201.646 871.793 201.611L859.139 212.15L861.039 214.431C861.439 214.912 861.633 215.332 861.623 215.694C861.612 216.055 861.455 216.363 861.15 216.616C860.862 216.856 860.535 216.952 860.17 216.904C859.805 216.856 859.422 216.592 859.022 216.111L853.542 209.532C853.142 209.052 852.951 208.628 852.97 208.26C852.989 207.891 853.142 207.587 853.431 207.347C853.735 207.094 854.066 206.995 854.423 207.05C854.78 207.104 855.159 207.372 855.559 207.852L857.459 210.133L874.195 196.194L872.776 194.489C872.376 194.009 872.185 193.584 872.204 193.216C872.222 192.848 872.384 192.537 872.688 192.284C872.976 192.044 873.303 191.948 873.668 191.996C874.034 192.044 874.417 192.309 874.817 192.789L877.916 196.511Z"/>
<path d="M906.414 282.997L921.371 260.183L920.977 259.508C920.663 258.968 920.545 258.518 920.625 258.158C920.705 257.798 920.907 257.524 921.231 257.335C921.465 257.199 921.711 257.134 921.968 257.141C922.225 257.148 922.449 257.222 922.64 257.364C922.831 257.506 923.042 257.775 923.273 258.171L926.89 264.382C927.204 264.922 927.322 265.372 927.242 265.732C927.162 266.092 926.951 266.371 926.609 266.571C926.285 266.759 925.947 266.8 925.595 266.691C925.242 266.583 924.909 266.259 924.595 265.719L922.817 262.667L909.606 282.766L933.527 281.057L931.75 278.006C931.436 277.466 931.318 277.016 931.398 276.656C931.478 276.296 931.689 276.017 932.031 275.817C932.355 275.629 932.693 275.588 933.045 275.697C933.398 275.805 933.731 276.129 934.046 276.669L937.647 282.853C937.972 283.411 938.095 283.87 938.015 284.23C937.935 284.59 937.724 284.869 937.382 285.069C937.148 285.205 936.89 285.259 936.608 285.23C936.326 285.201 936.101 285.115 935.934 284.972C935.766 284.829 935.441 284.343 934.958 283.515L897.346 286.18L899.406 289.718C899.721 290.258 899.843 290.705 899.772 291.06C899.701 291.415 899.495 291.692 899.153 291.891C898.829 292.079 898.491 292.12 898.138 292.011C897.786 291.903 897.452 291.579 897.138 291.039L889.526 277.969C889.212 277.429 889.09 276.981 889.161 276.627C889.231 276.272 889.438 275.995 889.78 275.796C890.122 275.597 890.464 275.554 890.808 275.668C891.151 275.781 891.48 276.108 891.795 276.648L895.931 283.75L906.414 282.997Z"/>
<path d="M942.515 323.899C938.903 325.617 935.202 325.79 931.413 324.42C927.625 323.049 924.862 320.539 923.127 316.889C921.374 313.201 921.168 309.458 922.511 305.659C923.853 301.861 926.322 299.107 929.915 297.398C933.528 295.681 937.231 295.5 941.025 296.857C944.818 298.213 947.592 300.735 949.345 304.423C951.081 308.073 951.284 311.8 949.956 315.604C948.627 319.407 946.147 322.172 942.515 323.899ZM941.375 321.5C944.348 320.087 946.375 317.825 947.457 314.715C948.539 311.606 948.364 308.546 946.933 305.535C945.502 302.525 943.234 300.46 940.13 299.341C937.025 298.222 933.996 298.364 931.042 299.769C928.107 301.164 926.089 303.422 924.988 306.54C923.888 309.659 924.053 312.723 925.484 315.734C926.915 318.744 929.183 320.809 932.288 321.928C935.392 323.047 938.421 322.905 941.375 321.5Z"/>
<path d="M942.072 359.786L945.669 358.432C941.365 356.224 938.479 353.17 937.011 349.27C936.108 346.872 936.075 344.803 936.912 343.063C938.019 340.799 939.713 339.238 941.994 338.379L957.845 332.412L956.601 329.107C956.381 328.522 956.34 328.059 956.479 327.717C956.617 327.376 956.872 327.135 957.242 326.996C957.593 326.864 957.934 326.88 958.263 327.046C958.592 327.211 958.867 327.586 959.087 328.171L961.256 333.933L942.919 340.836C941.32 341.437 940.194 342.44 939.543 343.843C938.891 345.246 938.851 346.707 939.424 348.228C940.928 352.225 944.141 355.201 949.062 357.155L964.913 351.188L963.207 346.655C962.987 346.07 962.946 345.607 963.084 345.265C963.223 344.924 963.477 344.683 963.848 344.544C964.199 344.412 964.539 344.428 964.868 344.594C965.198 344.759 965.473 345.134 965.693 345.719L968.324 352.709L945.453 361.318L946.235 363.395C946.455 363.98 946.501 364.441 946.372 364.779C946.243 365.117 945.994 365.356 945.623 365.495C945.272 365.627 944.932 365.611 944.603 365.445C944.273 365.28 943.998 364.905 943.778 364.32L942.072 359.786Z"/>
<path d="M975.962 377.046L969.588 378.852C973.486 381.299 976.092 383.218 977.407 384.61C978.722 386.003 979.575 387.39 979.967 388.773C980.393 390.277 980.283 391.818 979.637 393.398C978.991 394.978 978.407 395.841 977.886 395.989C977.505 396.097 977.154 396.061 976.833 395.881C976.511 395.702 976.296 395.422 976.189 395.041C976.132 394.84 976.119 394.66 976.149 394.5C976.179 394.34 976.331 394.015 976.604 393.526C977.107 392.626 977.415 391.878 977.528 391.283C977.641 390.688 977.626 390.14 977.484 389.639C977.172 388.537 976.354 387.334 975.032 386.03C973.71 384.727 970.793 382.646 966.281 379.789L952.45 383.707L955.619 394.892C955.795 395.513 955.805 395.987 955.648 396.313C955.491 396.639 955.223 396.856 954.842 396.964C954.481 397.066 954.143 397.021 953.829 396.828C953.515 396.636 953.27 396.229 953.093 395.607L947.48 375.794C947.31 375.192 947.303 374.729 947.459 374.403C947.616 374.077 947.875 373.863 948.236 373.761C948.576 373.664 948.898 373.708 949.199 373.894C949.501 374.079 949.739 374.482 949.915 375.104L951.645 381.207L972.691 375.244L971.371 370.584C971.201 369.983 971.199 369.518 971.365 369.189C971.532 368.86 971.806 368.642 972.187 368.534C972.548 368.432 972.884 368.472 973.195 368.654C973.507 368.837 973.75 369.239 973.927 369.86L975.962 377.046Z"/>
<path d="M1005.76 459.268L999.021 459.998L998.604 456.146L1005.35 455.416L1005.76 459.268ZM992.382 460.812L968.087 463.443L969.197 473.695C969.267 474.337 969.197 474.806 968.988 475.101C968.779 475.396 968.478 475.565 968.084 475.608C967.711 475.648 967.386 475.547 967.108 475.305C966.831 475.062 966.657 474.62 966.587 473.978L964.084 450.863C964.017 450.242 964.093 449.783 964.312 449.487C964.532 449.191 964.828 449.022 965.201 448.982C965.594 448.939 965.925 449.04 966.192 449.283C966.459 449.527 966.627 449.959 966.694 450.58L967.804 460.833L989.459 458.488L988.635 450.876C988.567 450.255 988.643 449.791 988.861 449.484C989.079 449.178 989.375 449.004 989.748 448.964C990.141 448.921 990.477 449.021 990.754 449.264C991.032 449.506 991.206 449.948 991.275 450.59L992.382 460.812Z"/>
<path d="M993.406 508.262C994.01 508.247 994.451 508.361 994.728 508.604C995.005 508.847 995.148 509.156 995.158 509.531C995.168 509.926 995.041 510.253 994.776 510.51C994.512 510.766 994.057 510.903 993.411 510.919L988.913 511.033C988.288 511.049 987.837 510.935 987.56 510.692C987.283 510.449 987.139 510.13 987.129 509.734C987.12 509.38 987.227 509.08 987.45 508.835C987.673 508.59 988.045 508.44 988.564 508.385C989.811 508.228 990.825 507.557 991.608 506.37C992.731 504.632 993.257 502.358 993.186 499.546C993.111 496.61 992.46 494.344 991.232 492.75C990.305 491.544 989.29 490.955 988.186 490.983C986.936 491.014 985.913 491.77 985.117 493.249C984.56 494.263 984.16 496.17 983.918 498.968C983.615 502.623 983.231 505.165 982.767 506.594C982.089 508.632 981.117 510.162 979.851 511.184C978.585 512.206 977.202 512.736 975.702 512.774C973.474 512.831 971.463 511.808 969.67 509.707C967.876 507.606 966.927 504.483 966.822 500.339C966.717 496.194 967.683 492.773 969.72 490.075C969.011 490.093 968.552 490.063 968.342 489.985C968.131 489.907 967.951 489.76 967.799 489.545C967.648 489.33 967.569 489.087 967.562 488.817C967.553 488.442 967.68 488.126 967.944 487.869C968.209 487.612 968.653 487.476 969.278 487.46L974.683 487.323C975.308 487.307 975.758 487.416 976.035 487.649C976.312 487.881 976.455 488.195 976.465 488.591C976.475 488.966 976.353 489.287 976.099 489.554C975.845 489.821 975.5 489.96 975.062 489.971C974.104 489.995 973.309 490.255 972.675 490.75C971.694 491.504 970.895 492.687 970.28 494.296C969.664 495.906 969.385 497.867 969.444 500.179C969.531 503.594 970.23 506.119 971.543 507.753C972.855 509.387 974.22 510.186 975.636 510.15C977.26 510.109 978.541 509.233 979.477 507.521C980.412 505.788 981.006 503.288 981.256 500.02C981.507 496.752 981.885 494.404 982.391 492.974C982.896 491.544 983.681 490.419 984.744 489.601C985.807 488.782 986.963 488.356 988.212 488.325C990.462 488.268 992.276 489.326 993.654 491.501C995.032 493.675 995.76 496.293 995.838 499.354C995.93 502.978 995.119 505.947 993.406 508.262Z"/>
<path d="M994.838 529.866L990.064 529.596C991.869 531.263 993.199 533.018 994.054 534.861C994.91 536.704 995.268 538.843 995.131 541.276C994.984 543.856 994.246 546.203 992.916 548.319C991.586 550.434 989.81 552.029 987.59 553.103C985.369 554.177 983.073 554.647 980.702 554.512C976.937 554.299 973.795 552.77 971.275 549.925C968.755 547.08 967.606 543.692 967.829 539.76C968.094 535.08 970.212 531.392 974.184 528.696L958.397 527.801L958.036 534.166C958.001 534.79 957.856 535.231 957.601 535.487C957.347 535.744 957.022 535.862 956.626 535.839C956.252 535.818 955.948 535.665 955.713 535.38C955.479 535.096 955.38 534.642 955.415 534.018L956.124 521.506C956.159 520.882 956.304 520.442 956.559 520.185C956.813 519.928 957.138 519.811 957.533 519.834C957.929 519.856 958.238 520.009 958.462 520.293C958.686 520.577 958.78 521.031 958.745 521.655L958.545 525.181L992.335 527.095L992.534 523.57C992.57 522.946 992.72 522.506 992.985 522.249C993.25 521.993 993.58 521.876 993.975 521.899C994.349 521.92 994.654 522.073 994.888 522.357C995.122 522.642 995.222 523.096 995.186 523.72L994.838 529.866ZM980.853 551.86C983.869 552.031 986.515 551.081 988.792 549.008C991.069 546.936 992.298 544.319 992.477 541.157C992.657 537.975 991.728 535.22 989.69 532.893C987.652 530.565 985.135 529.317 982.14 529.147C979.124 528.976 976.472 529.932 974.184 532.014C971.895 534.096 970.661 536.728 970.481 539.911C970.303 543.052 971.228 545.785 973.256 548.112C975.283 550.439 977.816 551.688 980.853 551.86Z"/>
</g>
<path d="M468 211L468 288L622 288C664.526 288 699 322.474 699 365L699 501.292C676.326 488.152 650.092 480.5 622 480.5L545 480.5L545 557.5L622 557.5C664.526 557.5 699 591.974 699 634.5L699 673C699 715.526 664.526 750 622 750L160 750L160 827L622 827C707.052 827 776 758.052 776 673L776 365C776 279.948 707.052 211 622 211L468 211Z" fill="#000000" fill-rule="nonzero" opacity="1" stroke="none"/>
<path d="M512 167L512 244L666 244C708.526 244 743 278.474 743 321L743 457.292C720.326 444.152 694.092 436.5 666 436.5L589 436.5L589 513.5L666 513.5C708.526 513.5 743 547.974 743 590.5L743 629C743 671.526 708.526 706 666 706L204 706L204 783L666 783C751.052 783 820 714.052 820 629L820 321C820 235.948 751.052 167 666 167L512 167Z" fill="#ebebe5" fill-rule="nonzero" opacity="1" stroke="none"/>
<path d="M160 211L160 291L240 291C284.183 291 320 326.817 320 371L320 691L400 691L400 371C400 282.634 328.366 211 240 211L160 211Z" fill="#000000" fill-rule="nonzero" opacity="1" stroke="none"/>
<path d="M204 167L204 247L284 247C328.183 247 364 282.817 364 327L364 647L444 647L444 327C444 238.634 372.366 167 284 167L204 167Z" fill="#415841" fill-rule="nonzero" opacity="1" stroke="none"/>
</g>
</svg>
